<svg xmlns="http://www.w3.org/2000/svg" viewBox="0 0 1018.99 428.7"><defs><style>.cls-1{isolation:isolate;}.cls-2{fill:#333;}.cls-3,.cls-5,.cls-6,.cls-8{fill:#02ccc0;}.cls-4{fill:#02baa8;}.cls-13,.cls-21,.cls-25,.cls-39,.cls-42,.cls-5,.cls-7,.cls-8{mix-blend-mode:multiply;}.cls-13,.cls-35,.cls-6{opacity:0.5;}.cls-15,.cls-6{mix-blend-mode:screen;}.cls-41,.cls-8{opacity:0.2;}.cls-9{fill:#183658;}.cls-10{fill:#e5be00;}.cls-11{fill:#1a1a1a;}.cls-12,.cls-13{fill:#9e9da2;}.cls-14,.cls-15{fill:#d8d9dd;}.cls-15,.cls-16,.cls-21,.cls-39,.cls-42{opacity:0.3;}.cls-16,.cls-20,.cls-41{fill:#fff;}.cls-17{fill:#c2ddf9;}.cls-18,.cls-21{fill:#cfe9fa;}.cls-18,.cls-44{opacity:0.6;}.cls-19{fill:#ff5b7e;}.cls-22{fill:#d7eef9;}.cls-23{fill:#edd9a4;}.cls-24,.cls-25{fill:#d6bb80;}.cls-26{fill:#ffc0bb;}.cls-27{fill:#122f5b;}.cls-28{fill:#224887;}.cls-29{fill:#fc8d84;}.cls-30{fill:#e4f0ff;}.cls-31{fill:#3660ac;}.cls-32,.cls-39{fill:#f99893;}.cls-33{fill:#f4a640;}.cls-34{fill:#07085b;}.cls-35{fill:#daeef7;}.cls-36{fill:#1e1e1e;}.cls-37{fill:#3a2645;}.cls-38{fill:#feb546;}.cls-40{fill:#f44e7a;}.cls-42{fill:#e87b50;}.cls-43{fill:#3c2340;}.cls-45{fill:#67a2da;}.cls-46{fill:#efd7ab;}</style></defs><g class="cls-1"><g id="Layer_1" data-name="Layer 1"><path class="cls-2" d="M151.35,141.79H324c15,0,27.16,11,27.16,24.53v91h11.52v-91c0-13.55,12.16-24.53,27.16-24.53H466c15,0,27.16,11,27.16,24.53v91h10.77v-91c0-13.55,12.16-24.53,27.16-24.53H698.8c15,0,27.17,11,27.17,24.53v118.8c0,13.55-12.17,24.53-27.17,24.53H531.05c-12.33,0-22.73-7.41-26-17.57H492c-3.32,10.16-13.72,17.57-26,17.57H389.87c-12.32,0-22.72-7.41-26.05-17.57H350.07c-3.32,10.16-13.72,17.57-26,17.57H151.35c-15,0-27.16-11-27.16-24.53V166.32C124.19,152.77,136.35,141.79,151.35,141.79Z"/><polygon class="cls-3" points="224.13 267.19 645.79 267.19 645.79 69.33 262.86 69.33 224.13 116.5 224.13 139.32 224.13 267.19"/><rect class="cls-4" x="645.79" y="64.73" width="14.85" height="202.45" transform="translate(1306.43 331.92) rotate(180)"/><polygon class="cls-5" points="219.82 260.73 290.41 260.73 290.41 69.33 295.89 69.33 295.89 260.73 377.88 260.73 377.88 69.33 383.37 69.33 383.37 260.73 465.36 260.73 465.36 69.33 470.84 69.33 470.84 260.73 552.83 260.73 552.83 69.33 558.32 69.33 558.32 260.73 640.31 260.73 640.31 69.33 645.79 69.33 645.79 260.73 645.79 265.03 645.79 267.19 640.31 267.19 640.31 265.03 558.32 265.03 558.32 267.19 552.83 267.19 552.83 265.03 470.84 265.03 470.84 267.19 465.36 267.19 465.36 265.03 383.37 265.03 383.37 267.19 377.88 267.19 377.88 265.03 295.89 265.03 295.89 267.19 290.41 267.19 290.41 265.03 219.82 265.03 219.82 260.73"/><rect class="cls-4" x="558.32" y="64.73" width="14.85" height="202.45" transform="translate(1131.49 331.92) rotate(180)"/><rect class="cls-4" x="470.84" y="64.73" width="14.85" height="202.45" transform="translate(956.54 331.92) rotate(180)"/><rect class="cls-4" x="383.37" y="64.73" width="14.85" height="202.45" transform="translate(781.59 331.92) rotate(180)"/><rect class="cls-4" x="295.89" y="64.73" width="14.85" height="202.45" transform="translate(606.64 331.92) rotate(180)"/><polygon class="cls-3" points="205.35 281.82 116.42 281.82 101.9 180.65 163.3 88.06 262.86 69.33 243.72 210.42 205.35 281.82"/><polygon class="cls-5" points="269.03 69.33 262.86 69.33 203.2 277.25 208.69 278.65 261.36 114.46 269.03 69.33"/><polygon class="cls-4" points="208.69 278.27 223.1 281.82 285.98 64.08 271.57 60.52 208.69 278.27"/><rect class="cls-4" x="104.64" y="265.03" width="559.76" height="16.79" transform="translate(769.05 546.86) rotate(180)"/><rect class="cls-6" x="104.64" y="265.03" width="559.76" height="4.31"/><g class="cls-7"><path class="cls-3" d="M116.48,183.87l-.11-.92,53.94-84.07,77.16-12.21-48.11,168H125.15Zm123.9-90.93-67,10.61-51.72,80.61,8,65.41h65.88Z"/></g><path class="cls-3" d="M820.51,136H698.63a21.94,21.94,0,0,0-21.94,22V297.44H871.86v-57.9l-34-91.48A18.53,18.53,0,0,0,820.51,136Z"/><path class="cls-8" d="M713.42,163s20.43,110.89,125.8,106.33l.41,17.07-.41,4.12-1.69,2.9-2.18,2.18-3.27,1.46-1.57.2-7.47.17h-26.3s-31.88-.05-32,0-11.9,0-11.9,0l-39.75-25.59Z"/><rect class="cls-3" x="871.86" y="239.54" width="4.52" height="38.61" transform="translate(1748.25 517.69) rotate(180)"/><path class="cls-9" d="M712.69,287.41V163a10.4,10.4,0,0,1,10.39-10.39h83.08a10.44,10.44,0,0,1,9.73,6.76l23.4,62.7a10.23,10.23,0,0,1,.66,3.63v61.7a10.4,10.4,0,0,1-10.39,10.39H723.08A10.4,10.4,0,0,1,712.69,287.41Zm10.39-134.06a9.67,9.67,0,0,0-9.66,9.66v124.4a9.67,9.67,0,0,0,9.66,9.66H829.56a9.67,9.67,0,0,0,9.66-9.66v-61.7a9.53,9.53,0,0,0-.61-3.38l-23.4-62.7a9.71,9.71,0,0,0-9.05-6.28Z"/><path class="cls-10" d="M880.52,242.34h.38a0,0,0,0,1,0,0v33a0,0,0,0,1,0,0h-.38a4.14,4.14,0,0,1-4.14-4.14V246.47A4.14,4.14,0,0,1,880.52,242.34Z" transform="translate(1757.29 517.69) rotate(-180)"/><path class="cls-9" d="M829.19,216.41l-19.37-54.76a5.61,5.61,0,0,0-5.29-3.74h-80a5.62,5.62,0,0,0-5.62,5.61v54.77a5.62,5.62,0,0,0,5.62,5.61H823.9A5.62,5.62,0,0,0,829.19,216.41Z"/><path class="cls-4" d="M883.48,311.1h0c0,7.54-5.17,13.65-11.56,13.65H676.69V297.44H871.92C878.31,297.44,883.48,303.55,883.48,311.1Z"/><path class="cls-9" d="M866.05,223.9h-7.53L836.62,165a5.24,5.24,0,0,1,4.91-7.07h0Z"/><path class="cls-2" d="M429.46,324.75H319.33s-4.49-8-2.66-8.31,11.51-24,11.51-24l22.92-17.07,25.18-6,22.92,6,17.13,12.35L427,300.94l5.48,19.7Z"/><path class="cls-4" d="M432,327.15a2.51,2.51,0,0,1-2.5-2.4,55.12,55.12,0,0,0-110.13,0,2.51,2.51,0,0,1-2.51,2.4h0a2.51,2.51,0,0,1-2.51-2.62,60.14,60.14,0,0,1,120.17,0,2.52,2.52,0,0,1-2.52,2.62Z"/><rect class="cls-3" x="747.48" y="154.57" width="3.87" height="72.68" transform="translate(1498.84 381.81) rotate(180)"/><path class="cls-2" d="M263.75,324.75H153.62s-4.48-8-2.65-8.31,11.51-24,11.51-24l22.92-17.07,25.18-6,22.91,6,17.13,12.35,10.63,13.24,5.49,19.7Z"/><path class="cls-4" d="M266.26,327.15a2.51,2.51,0,0,1-2.51-2.4,55.12,55.12,0,0,0-110.13,0,2.51,2.51,0,0,1-2.5,2.4h0a2.52,2.52,0,0,1-2.52-2.62,60.14,60.14,0,0,1,120.17,0,2.51,2.51,0,0,1-2.51,2.62Z"/><ellipse class="cls-11" cx="374.39" cy="325.8" rx="47.98" ry="47.96" transform="translate(47.86 699.56) rotate(-89.89)"/><ellipse class="cls-12" cx="374.39" cy="325.8" rx="33.38" ry="33.37" transform="translate(47.64 699.36) rotate(-89.85)"/><path class="cls-13" d="M355.78,298.09a33.37,33.37,0,0,0,46.91,45.39,33.37,33.37,0,1,1-46.91-45.39Z"/><path class="cls-14" d="M352.08,325.8a22.32,22.32,0,1,0,22.31-22.32A22.32,22.32,0,0,0,352.08,325.8Z"/><path class="cls-15" d="M362.07,307.19A22.31,22.31,0,0,0,393,338.13a22.32,22.32,0,1,1-30.92-30.94Z"/><path class="cls-6" d="M871.92,297.44c6.39,0,11.56,6.11,11.56,13.66h0a14.93,14.93,0,0,1-.09,1.65c-.69-6.76-5.56-12-11.47-12H676.69v-3.3Z"/><ellipse class="cls-11" cx="208.69" cy="325.8" rx="47.98" ry="47.96" transform="translate(-117.52 533.86) rotate(-89.89)"/><ellipse class="cls-12" cx="208.69" cy="325.8" rx="33.38" ry="33.37" transform="translate(-117.65 533.66) rotate(-89.85)"/><path class="cls-13" d="M190.08,298.09A33.37,33.37,0,0,0,237,343.48a33.37,33.37,0,1,1-46.91-45.39Z"/><path class="cls-14" d="M186.37,325.8a22.32,22.32,0,1,0,22.32-22.32A22.32,22.32,0,0,0,186.37,325.8Z"/><path class="cls-15" d="M196.36,307.19a22.32,22.32,0,0,0,30.93,30.94,22.32,22.32,0,1,1-30.93-30.94Z"/><path class="cls-2" d="M789.47,324.75H679.34s-4.48-8-2.65-8.31,11.51-24,11.51-24l22.92-17.07,25.17-6,22.92,6,17.13,12.35L787,300.94l5.49,19.7Z"/><rect class="cls-2" x="726.61" y="230.37" width="30.34" height="4.06" rx="1.86" transform="translate(1483.56 464.79) rotate(-180)"/><ellipse class="cls-11" cx="734.41" cy="325.8" rx="47.98" ry="47.96" transform="translate(407.16 1059.57) rotate(-89.89)"/><ellipse class="cls-12" cx="734.41" cy="325.8" rx="33.38" ry="33.37" transform="translate(406.74 1059.38) rotate(-89.85)"/><path class="cls-13" d="M715.8,298.09a33.37,33.37,0,0,0,46.91,45.39,33.37,33.37,0,1,1-46.91-45.39Z"/><path class="cls-14" d="M712.09,325.8a22.32,22.32,0,1,0,22.32-22.32A22.32,22.32,0,0,0,712.09,325.8Z"/><path class="cls-15" d="M722.08,307.19A22.32,22.32,0,0,0,753,338.13a22.32,22.32,0,1,1-30.93-30.94Z"/><rect class="cls-11" x="530.57" y="294.48" width="105.44" height="30.27" rx="13.86" transform="translate(1166.59 619.24) rotate(180)"/><path class="cls-12" d="M622,281.82h.27a1.48,1.48,0,0,1,1.48,1.48v42.5a0,0,0,0,1,0,0h-3.23a0,0,0,0,1,0,0V283.3a1.48,1.48,0,0,1,1.48-1.48Z" transform="translate(1244.22 607.63) rotate(-180)"/><path class="cls-12" d="M545.58,281.82h.27a1.48,1.48,0,0,1,1.48,1.48v42.5a0,0,0,0,1,0,0H544.1a0,0,0,0,1,0,0V283.3A1.48,1.48,0,0,1,545.58,281.82Z" transform="matrix(-1, 0, 0, -1, 1091.43, 607.63)"/><rect class="cls-2" x="88.89" y="281.82" width="39.49" height="6.42" rx="2.94" transform="translate(217.27 570.06) rotate(180)"/><path class="cls-4" d="M792,327.15a2.51,2.51,0,0,1-2.51-2.4,55.12,55.12,0,0,0-110.13,0,2.51,2.51,0,0,1-2.5,2.4h0a2.52,2.52,0,0,1-2.52-2.62,60.14,60.14,0,0,1,120.17,0,2.51,2.51,0,0,1-2.51,2.62Z"/><polygon class="cls-16" points="790.37 157.91 813.09 223.9 794.49 223.9 771.06 157.91 790.37 157.91"/><polygon class="cls-16" points="763.79 157.91 787.42 223.9 780.09 223.9 757.88 157.91 763.79 157.91"/><path class="cls-17" d="M366.47,213.27s-7.2,8.57-24.16,10.08S338,233.82,338,233.82s20.45,2.94,27.59-1.85S366.47,213.27,366.47,213.27Z"/><path class="cls-18" d="M311.14,217.05l0-.13a4.88,4.88,0,0,1,3.14-5.29.8.8,0,0,0,.52-.87l-.31-2.1,2.13-.31.31,2.1a.8.8,0,0,0,.74.69,4.87,4.87,0,0,1,4.52,4.16l0,.13a.8.8,0,0,1-.59.89l1.07,7.3a1,1,0,0,1,.84.83L325.06,235a3.15,3.15,0,0,1-2.66,3.57l-2.42.35-2.41.36a3.15,3.15,0,0,1-3.57-2.66l-1.54-10.55a1,1,0,0,1,.56-1l-1.07-7.3A.78.78,0,0,1,311.14,217.05Z"/><rect class="cls-19" x="314.02" y="208.37" width="3.22" height="1.46" rx="0.67" transform="translate(658.24 370.22) rotate(171.66)"/><path class="cls-20" d="M312.4,216.77a.35.35,0,0,0,.29-.34,4.14,4.14,0,0,1,1.79-3.47.34.34,0,0,0-.36-.58,4.81,4.81,0,0,0-2.11,4.05.34.34,0,0,0,.34.34Z"/><path class="cls-21" d="M313,225l-1.07-7.3,4.84-.71s-3.57,1-3.59,2.58-.58,5.61,4.67,4.91c0,0-4.24,1-4.21,3.25s.08,12,6.32,11.16l-2.41.36a3.15,3.15,0,0,1-3.57-2.66l-1.54-10.55A1,1,0,0,1,313,225Z"/><path class="cls-18" d="M335.48,215.35l.13,0a4.87,4.87,0,0,1,5.67,2.39.8.8,0,0,0,.94.39l2-.59.6,2.06-2,.6a.79.79,0,0,0-.58.82,4.89,4.89,0,0,1-3.5,5.06l-.13,0a.79.79,0,0,1-.95-.46l-7.09,2.07a1,1,0,0,1-.71.94l-10.23,3a3.14,3.14,0,0,1-3.9-2.14l-.68-2.34-.68-2.34a3.15,3.15,0,0,1,2.14-3.91l10.23-3a1,1,0,0,1,1.1.42l7.09-2.07A.78.78,0,0,1,335.48,215.35Z"/><rect class="cls-19" x="342.37" y="217.98" width="3.22" height="1.46" rx="0.67" transform="translate(230.22 610.13) rotate(-106.24)"/><path class="cls-20" d="M335.94,216.56a.34.34,0,0,0,.38.24,4.16,4.16,0,0,1,3.68,1.3.34.34,0,0,0,.53-.44,4.85,4.85,0,0,0-4.31-1.53.33.33,0,0,0-.29.38S335.94,216.54,335.94,216.56Z"/><path class="cls-21" d="M327.84,218.32l7.09-2.07,1.36,4.7s-1.46-3.41-3-3.21-5.64.21-4.22,5.31c0,0-1.58-4.07-3.8-3.72s-11.82,1.72-10.18,7.8l-.68-2.34a3.15,3.15,0,0,1,2.14-3.91l10.23-3A1,1,0,0,1,327.84,218.32Z"/><path class="cls-18" d="M331.21,206.8l.1-.08a4.86,4.86,0,0,1,6.14.24.78.78,0,0,0,1,0l1.69-1.27,1.3,1.72-1.69,1.27a.81.81,0,0,0-.25,1,4.88,4.88,0,0,1-1.47,6l-.1.08a.78.78,0,0,1-1.05-.1L331,220.05a1,1,0,0,1-.33,1.14l-8.47,6.38a3.14,3.14,0,0,1-4.4-.63L316.34,225l-1.47-2a3.15,3.15,0,0,1,.61-4.4l8.48-6.38a1,1,0,0,1,1.18,0l5.87-4.42A.78.78,0,0,1,331.21,206.8Z"/><rect class="cls-19" x="338.71" y="206.22" width="3.22" height="1.45" rx="0.67" transform="translate(379.66 603.3) rotate(-126.97)"/><path class="cls-20" d="M332.06,207.77a.35.35,0,0,0,.44.09,4.13,4.13,0,0,1,3.89-.08.35.35,0,0,0,.47-.13.34.34,0,0,0-.13-.46,4.82,4.82,0,0,0-4.56.07.35.35,0,0,0-.13.47Z"/><path class="cls-21" d="M325.14,212.26l5.87-4.42,2.94,3.9s-2.58-2.66-4-1.92-5.18,2.17-2.05,6.45c0,0-2.91-3.25-4.86-2.15s-10.41,5.77-6.72,10.87l-1.47-2a3.15,3.15,0,0,1,.61-4.4l8.48-6.38A1,1,0,0,1,325.14,212.26Z"/><path class="cls-18" d="M311,223.48l-.12-.06a4.86,4.86,0,0,1-2.17-5.74.81.81,0,0,0-.37-1l-1.82-1,1.07-1.87,1.83,1.06a.8.8,0,0,0,1-.15,4.86,4.86,0,0,1,6.05-1l.12.07a.79.79,0,0,1,.32,1l6.36,3.68a1,1,0,0,1,1.17-.15l9.19,5.32A3.14,3.14,0,0,1,334.8,228l-1.22,2.12-1.22,2.11a3.14,3.14,0,0,1-4.29,1.15L318.89,228a1,1,0,0,1-.46-1.09l-6.36-3.68A.77.77,0,0,1,311,223.48Z"/><rect class="cls-19" x="306" y="214.31" width="3.22" height="1.45" rx="0.67" transform="translate(647.76 56.39) rotate(120.04)"/><path class="cls-20" d="M311.59,222.32a.34.34,0,0,0-.08-.44,4.15,4.15,0,0,1-1.6-3.55.33.33,0,0,0-.29-.38.34.34,0,0,0-.38.3,4.83,4.83,0,0,0,1.85,4.17.36.36,0,0,0,.48-.06S311.59,222.33,311.59,222.32Z"/><path class="cls-21" d="M318.43,226.94l-6.36-3.68,2.45-4.23s-1.45,3.41-.22,4.41,4,3.93,6.73-.63c0,0-1.85,4-.08,5.32s9.37,7.33,12.63,2l-1.22,2.11a3.14,3.14,0,0,1-4.29,1.15L318.89,228A1,1,0,0,1,318.43,226.94Z"/><path class="cls-22" d="M332.28,231.81s5.31-12.09,5.22-14.6c0,0,8,.59,16,1.28l-5.78,13.81Z"/><path class="cls-22" d="M326.16,232.46s-5.31-12.09-5.22-14.61c0,0-8,.59-16,1.28L310.76,233Z"/><rect class="cls-23" x="303.74" y="225.51" width="48.9" height="32.65"/><rect class="cls-24" x="336.11" y="225.51" width="16.53" height="32.65"/><rect class="cls-25" x="338.35" y="231.31" width="12.78" height="1.55" rx="0.71"/><polygon class="cls-26" points="371.3 369.25 371.3 364.45 365.81 362.93 364.59 363.47 364.38 369.25 366.11 374.3 371.3 369.25"/><polygon class="cls-27" points="359.36 270.8 363.26 365.78 372.33 365.78 380.32 293.99 369.84 261.82 359.36 270.8"/><polygon class="cls-26" points="406.39 369.25 406.39 364.45 400.9 362.93 399.67 363.47 399.46 369.25 401.19 374.3 406.39 369.25"/><path class="cls-26" d="M335.32,245.53a.28.28,0,0,1-.1.47c-1.61.43-6.64,1.83-6.62,2.26s4.55-.62,4.81-.23-4.18,1.4-4.06,1.95,4.13-.5,4.25-.29-3.61,1.63-3.74,2,4.05-.66,4.28-.45-2.42,1.89-2.3,2.13.15.43,7.19-1.61l2.74-.93,1.83-2-1.37-2.92s-8.82-3.35-9.14-3.13S332.85,243.34,335.32,245.53Z"/><path class="cls-28" d="M363.26,271l35.54,94.78,8.7-.71s-10.83-86.9-17.32-95.16-20.69-6.49-20.69-6.49Z"/><path class="cls-26" d="M367.2,214.77s4.39,2.6,7.81,0h0l-.81-6.36-6.8-1.4-.2,7.76Z"/><path class="cls-29" d="M367.29,211.16l.11-4.15,6.9,2.15.2,1.55A12.4,12.4,0,0,1,367.29,211.16Z"/><path class="cls-30" d="M340.8,242.36c3.47.83,11.66.42,17.86-.07a118.21,118.21,0,0,1,.7-13.26c1.6-11.9,7.11-15.76,7.11-15.76a13.69,13.69,0,0,0,9.32-2.27,18.29,18.29,0,0,1,11.64,4.08c11.32,9.78,2.75,29.77,2.75,29.77l3.11,26.41c-7,2.4-35.71,1-35.71,1a102.08,102.08,0,0,0,1.2-17c-9.09-.51-18-2-18-2C340.44,251.34,340.8,242.36,340.8,242.36Z"/><path class="cls-27" d="M378.66,224.56A14.87,14.87,0,0,1,374.22,235a19.63,19.63,0,0,1-4.67,3.42,26.59,26.59,0,0,1-5.4,2.16c-.23.07-.46.15-.7.21l-.71.18c-.47.11-.94.24-1.42.34l-1.44.27-.72.14-.72.1c-1,.14-1.94.28-2.92.35l-1.46.14c-.49,0-1,.05-1.47.08a113.11,113.11,0,0,1-11.79-.07,76.49,76.49,0,0,0,11.82.7,45.56,45.56,0,0,0,11.76-1.67,26.37,26.37,0,0,0,5.53-2.27,18.94,18.94,0,0,0,4.75-3.64,16.33,16.33,0,0,0,1.85-2.38,16,16,0,0,0,1.32-2.69,15.33,15.33,0,0,0,.74-2.89A10.88,10.88,0,0,0,378.66,224.56Z"/><path class="cls-27" d="M340.8,253.29a100.62,100.62,0,0,0,13,2,87.2,87.2,0,0,0,13.23.23,46.2,46.2,0,0,0,13-2.5,22.53,22.53,0,0,0,5.86-3.14,14.57,14.57,0,0,0,4.25-5,15.15,15.15,0,0,1-4.48,4.71,23.46,23.46,0,0,1-5.84,2.86,40.47,40.47,0,0,1-6.34,1.56,61.56,61.56,0,0,1-6.5.74,106.53,106.53,0,0,1-13.13-.06c-2.19-.13-4.37-.31-6.56-.54S343,253.62,340.8,253.29Z"/><path class="cls-27" d="M356.31,375.37l16-.05a.89.89,0,0,0,.89-.89h0a.88.88,0,0,0-.9-.89l-16,0a.89.89,0,0,0-.89.9h0A.89.89,0,0,0,356.31,375.37Z"/><path class="cls-31" d="M372.35,368.1l.6,5c.08.62-.27,1.18-.72,1.18l-15.66,0a1.14,1.14,0,0,1-1-.73,2.17,2.17,0,0,1,.43-2.22c1.38-2,5.91-2.47,8.18-4.13a.3.3,0,0,1,.16,0l7.2,0C371.93,367.14,372.28,367.55,372.35,368.1Z"/><path class="cls-20" d="M365.35,370.05h0a.34.34,0,0,0,.08-.41,3,3,0,0,0-3.23-2c-.11,0-.18.17-.17.33h0c0,.15.12.25.23.23a2.61,2.61,0,0,1,2.82,1.73A.18.18,0,0,0,365.35,370.05Z"/><path class="cls-20" d="M363.72,370.69h0a.33.33,0,0,0,.09-.4,3,3,0,0,0-3.23-2,.28.28,0,0,0-.17.32h0c0,.15.12.24.23.22a2.61,2.61,0,0,1,2.82,1.73C363.52,370.7,363.63,370.75,363.72,370.69Z"/><path class="cls-20" d="M362.21,371.29h0a.34.34,0,0,0,.09-.4,3,3,0,0,0-3.23-2,.28.28,0,0,0-.17.32h0c0,.15.12.25.23.23a2.6,2.6,0,0,1,2.82,1.72C362,371.31,362.12,371.35,362.21,371.29Z"/><path class="cls-27" d="M391,375.37l16-.05a.89.89,0,0,0,.89-.89h0a.88.88,0,0,0-.9-.89l-16,0a.89.89,0,0,0-.89.9h0A.89.89,0,0,0,391,375.37Z"/><path class="cls-31" d="M407.08,368.1l.6,5c.07.62-.27,1.18-.72,1.18l-15.66,0a1.14,1.14,0,0,1-1-.73,2.17,2.17,0,0,1,.43-2.22c1.38-2,5.91-2.47,8.18-4.13a.3.3,0,0,1,.16,0l7.2,0C406.66,367.14,407,367.55,407.08,368.1Z"/><path class="cls-20" d="M400.08,370.05h0a.34.34,0,0,0,.08-.41,3,3,0,0,0-3.23-2c-.11,0-.19.17-.17.33h0c0,.15.13.25.23.23a2.62,2.62,0,0,1,2.83,1.73A.18.18,0,0,0,400.08,370.05Z"/><path class="cls-20" d="M398.45,370.69h0a.34.34,0,0,0,.09-.4,3,3,0,0,0-3.23-2,.28.28,0,0,0-.17.32h0c0,.15.12.24.23.22a2.61,2.61,0,0,1,2.82,1.73C398.25,370.7,398.36,370.75,398.45,370.69Z"/><path class="cls-20" d="M396.94,371.29h0a.34.34,0,0,0,.09-.4,3,3,0,0,0-3.23-2c-.12,0-.19.17-.17.32h0c0,.15.12.25.23.23a2.6,2.6,0,0,1,2.82,1.72C396.74,371.31,396.85,371.35,396.94,371.29Z"/><path class="cls-2" d="M360.79,192.26v6l3.19-7.47s-2.54-1.77-2.74-1.3A21.69,21.69,0,0,0,360.79,192.26Z"/><path class="cls-32" d="M362.55,198.44a1.85,1.85,0,1,1-2.38-1.63A2.07,2.07,0,0,1,362.55,198.44Z"/><path class="cls-26" d="M361.13,199.05c0-.3,0-.59,0-.89a9.62,9.62,0,1,1,19.17.12,2.07,2.07,0,0,1,1.88,0,2.9,2.9,0,0,1-2.78,4.93,1.77,1.77,0,0,1-.41-.31,9,9,0,0,1-9.7,7.4C364.73,209.84,361.16,206.29,361.13,199.05Z"/><path class="cls-32" d="M368.54,197.09c-.11.54-.19,1.07-.3,1.59a3.77,3.77,0,0,1-.52,1.37l-.05,0-.06.06a1.53,1.53,0,0,0-.18.18,1.17,1.17,0,0,0-.22.48,1.14,1.14,0,0,0,.28,1,1.84,1.84,0,0,0,1.58.57,2.38,2.38,0,0,1-1.24-.83.74.74,0,0,1-.11-.58.58.58,0,0,1,.14-.24s.07-.07.1-.11l.09-.08.09-.09a2,2,0,0,0,.39-.83,4.88,4.88,0,0,0,.13-.84A5.7,5.7,0,0,0,368.54,197.09Z"/><path class="cls-2" d="M371.58,198.31a.84.84,0,1,0,1.67.18.84.84,0,0,0-1.67-.18Z"/><path class="cls-2" d="M364.36,198a.84.84,0,1,0,.92-.74A.83.83,0,0,0,364.36,198Z"/><path class="cls-32" d="M372.08,204.15a6.93,6.93,0,0,1-.76.41,6.13,6.13,0,0,1-.81.31,5.12,5.12,0,0,1-1.69.24,4.47,4.47,0,0,1-1.65-.38,6.24,6.24,0,0,1-1.44-1,5.28,5.28,0,0,0,.63.62,4.75,4.75,0,0,0,.74.49,4.6,4.6,0,0,0,.83.32,3.82,3.82,0,0,0,.88.13,4.51,4.51,0,0,0,1.75-.3A5,5,0,0,0,372.08,204.15Z"/><path class="cls-2" d="M370.83,196.27a9.4,9.4,0,0,1,1.26-.1,4.06,4.06,0,0,1,1.16.16,4.11,4.11,0,0,1,1.06.46,5.16,5.16,0,0,1,.51.35c.17.12.33.26.52.39a2.8,2.8,0,0,0-.28-.61,2.7,2.7,0,0,0-.43-.53,2.63,2.63,0,0,0-1.21-.7,2.85,2.85,0,0,0-1.39,0A2.66,2.66,0,0,0,370.83,196.27Z"/><path class="cls-2" d="M367.11,196.1a2.71,2.71,0,0,0-1.12-.75,2.92,2.92,0,0,0-1.38-.13,2.65,2.65,0,0,0-1.28.56,2.43,2.43,0,0,0-.49.47,2.89,2.89,0,0,0-.35.58c.2-.1.37-.23.56-.33s.36-.21.55-.28a3.75,3.75,0,0,1,1.11-.34,4.08,4.08,0,0,1,1.16,0A8.44,8.44,0,0,1,367.11,196.1Z"/><path class="cls-2" d="M361.48,186.71s-2.8-.35.5-2.25,11.6-3.42,16.22,0c0,0,1.34-2,2.72-1.24s-1.26,1.84-1.26,1.84,1.87.23,2.29,1.23c.32.75-.83.6-1.45.47,1,.34,4.69,3.55,1.36,11.42-.7-.28-3.88-6.91-3.88-6.91s-10.27,3.75-8.68-.27c0,0-10.74,4.56-8.55-.26C360.75,190.77,356.92,190.45,361.48,186.71Z"/><path class="cls-2" d="M381.86,198.26a1.79,1.79,0,0,0-1.68.14c-.95.53-1.22,2.89-1.22,2.89s-4.42,2-2.27-8.93c2.28-11.58,3.2,1.46,3.2,1.46Z"/><path class="cls-26" d="M482.12,224.23a7.43,7.43,0,0,1-.76-3.72l.57-1.29c.72-1.61.56-2.8-.09-3h-.13l-2.92,3.94L478,219l-1.94,6,.78,3.33Z"/><path class="cls-33" d="M520.51,213.62l-23.67,16.27-15.75-9.42a11.28,11.28,0,0,0-2.23,7.15c0,.07,12.66,12.74,16.11,14.18s24.87-13.32,24.87-13.32Z"/><path class="cls-2" d="M495.35,254.88c-2-9,.86-16.32-4.74-23.22l-.21-.25a19.79,19.79,0,0,0-12.47-7.07c3-3.5,4.42-9.43,4.42-9.43a12.18,12.18,0,0,1-9.44-.87l2.25,10.09a19.71,19.71,0,0,0-12.85,4.64c-6.58,5.55-14.41,14.08-14.58,23.38s-2.14,12.8,11.59,21.1c14.14,8.56,20.84,1,29.34,2.13S497.65,265.18,495.35,254.88Z"/><path class="cls-26" d="M475.07,222.91l.09,1.22a1.17,1.17,0,0,1-1.28-.83l-1.31-6.38a.83.83,0,0,1,.3-.83c.78-.6,2.44-1.83,2.8-1.65s-1.95,2.4-1.76,2.52,3-.92,3.06-.57-2.53,1.74-2.49,1.93,2.69-.37,2.85,0-2.5,1.25-2.51,1.38Z"/><path class="cls-26" d="M499.13,372.27l8.71-5.36,5.33,4.66-2.28,1.62-7.89,1.1s-3.08-.4-3.21-.49A9.94,9.94,0,0,1,499.13,372.27Z"/><path class="cls-34" d="M499.13,372.27l-1.91,1.22a1,1,0,0,0,.55,1.93l14.45.09a.92.92,0,0,0,.93-.91l0-3C503.52,374.58,500.21,373.62,499.13,372.27Z"/><path class="cls-2" d="M536.27,200.4s3.66-8.33-.82-12.48a14,14,0,0,0-13.89-3.43c-4,1.31-7.37,7.73-6.43,11.91l12.76-1.57Z"/><path class="cls-35" d="M534.82,263.05c-1,.18-2,.32-2.93.45s-2,.25-2.94.34c-2,.2-3.94.33-5.92.37-1,0-2,0-3,0s-2-.08-3-.17-2-.2-2.94-.36-1.94-.37-2.9-.63c1,.28,1.92.5,2.89.69s2,.3,2.94.4,2,.14,3,.18,2,0,3,0q3-.07,5.93-.4c1-.1,2-.23,2.94-.37S533.85,263.25,534.82,263.05Z"/><polygon class="cls-26" points="513.17 371.57 514.97 361.35 507.44 360.55 506.98 361.07 505.71 368.16 509.27 371.75 513.17 371.57"/><path class="cls-26" d="M552.15,372l3.38-9.66,7.07.27-.75,2.69-5.43,5.83s-2.64,1.63-2.8,1.64A10,10,0,0,1,552.15,372Z"/><path class="cls-34" d="M552.15,372l-.71,2.16a1,1,0,0,0,1.64,1.15l11.27-9a.92.92,0,0,0,.14-1.3l-1.89-2.36C557,371,553.84,372.37,552.15,372Z"/><polygon class="cls-26" points="562.6 362.6 557.56 353.53 551.2 357.66 551.17 358.35 554.67 364.65 559.69 365.19 562.6 362.6"/><path class="cls-26" d="M568.73,198.21a.25.25,0,0,0,.45,0c.72-1.41,3-5.85,3.42-5.75s-1.48,4.14-1.16,4.46,2.13-3.64,2.62-3.43-1.28,3.78-1.1,3.94,2.23-3.07,2.6-3.12-1.42,3.67-1.26,3.92,2.23-1.9,2.44-1.74.37.23-2.92,6.43l-1.4,2.38-2.19,1.33-2.47-1.85s-1.41-8.93-1.14-9.18S567.16,195.47,568.73,198.21Z"/><path class="cls-36" d="M525.45,267.54l-2.3,42.34s-3.38,44.78-7.71,54.18h-9.59l4.7-105.17h14.29Z"/><path class="cls-37" d="M510,271l.54-12.12L522,258.6l.25,1.16,13.06-1.62S546,272,543.46,294s-2,29.92-2,29.92,13.82,12.7,18.06,31c0,0-6.07,4.23-10.16,4.94,0,0-20.31-31-21.87-34.71-.92-2.2-4-25-6.34-42.95C521.18,282.22,511,274.77,510,271Z"/><path class="cls-38" d="M508.06,231.78a24.75,24.75,0,0,1,9-16.52,5.13,5.13,0,0,1,2.09-1,30.89,30.89,0,0,1,6.11-.61h4.36s7,.39,10.12,1.37,15.38,6.42,16.74,5.64,10.9-18.1,10.9-18.1l5.26,2.72s-3.31,24.25-12.46,26.05a46,46,0,0,1-18.1-.54s-1.75,24.33-6.23,28.62c0,0-17.68,1.2-24.25.44a2.68,2.68,0,0,1-2.33-2.24C508.53,253.23,507,241.79,508.06,231.78Z"/><path class="cls-26" d="M513.7,218.54a25,25,0,0,1,3.31-3.27,5.18,5.18,0,0,1,2.1-1,30.89,30.89,0,0,1,6.11-.61h4.36s1.2.07,2.81.22A23.42,23.42,0,0,1,513.7,218.54Z"/><path class="cls-26" d="M528,215.5l-8.25.18a18.53,18.53,0,0,0,0-5.14c-.52-1.47,8.67-1.7,8.67-1.7A54.44,54.44,0,0,0,528,215.5Z"/><path class="cls-32" d="M528.41,208.84s-.2,1.54-.33,3.39A8,8,0,0,1,522,214a7.76,7.76,0,0,1-2.1-.57,10.15,10.15,0,0,0-.15-2.87C519.22,209.07,528.41,208.84,528.41,208.84Z"/><path class="cls-2" d="M531.25,197.58a13.15,13.15,0,0,1,8.14,4.8c3.75,4.42,4.05,14.66-3.29,19.68s-10.78,4.55-13.45,10.17c0,0-3.35-6.41,2.39-13.57a5.6,5.6,0,0,0-3.13,1.87s0-5.88,5-8.67,6.36-7.63,3.13-9.23S531.25,197.58,531.25,197.58Z"/><path class="cls-32" d="M516.44,198.22a1.88,1.88,0,1,1-2.22-1.93A2.11,2.11,0,0,1,516.44,198.22Z"/><path class="cls-26" d="M515,203.28a18.26,18.26,0,0,1,0-4.61q0-.45.06-.9a9.67,9.67,0,0,1,.86-3.68,9.8,9.8,0,0,1,18.52,6.06,2.11,2.11,0,0,1,1.9.25,3,3,0,0,1-3.4,4.66,1.8,1.8,0,0,1-.37-.36,9.2,9.2,0,0,1-10.68,6.35A9,9,0,0,1,515,203.28Z"/><path class="cls-2" d="M525.19,199.89a.92.92,0,1,0,1.11-.69A.93.93,0,0,0,525.19,199.89Z"/><path class="cls-2" d="M517.75,198.58a.92.92,0,0,0,.69,1.1.92.92,0,1,0-.69-1.1Z"/><path class="cls-2" d="M524.7,198.25a5.38,5.38,0,0,1,1.36-.27,4.31,4.31,0,0,1,1.34.14,3.66,3.66,0,0,1,.63.23,4.92,4.92,0,0,1,.58.35,6.42,6.42,0,0,1,1,.93,3.68,3.68,0,0,0-.87-1.13,2.85,2.85,0,0,0-.6-.43,3.57,3.57,0,0,0-.68-.27,3.51,3.51,0,0,0-2.16.12A2.91,2.91,0,0,0,524.7,198.25Z"/><path class="cls-2" d="M521,197.6a3,3,0,0,0-.48-.53,4.13,4.13,0,0,0-.59-.41,3.39,3.39,0,0,0-1.39-.44,3,3,0,0,0-.74,0,3,3,0,0,0-.71.19,3.84,3.84,0,0,0-1.21.77,7.46,7.46,0,0,1,1.29-.53,5.09,5.09,0,0,1,.67-.12,3.75,3.75,0,0,1,.67,0,4.23,4.23,0,0,1,1.3.34A5.35,5.35,0,0,1,521,197.6Z"/><path class="cls-20" d="M541.9,230.6a9.44,9.44,0,0,1-.7-.84c-.21-.3-.41-.61-.59-.93a8.42,8.42,0,0,1-.49-1c-.14-.34-.25-.69-.36-1.05a6,6,0,0,0,.23,1.1c0,.18.12.36.19.54l.23.51a7.42,7.42,0,0,0,.58,1,7.7,7.7,0,0,0,.57.71,3.68,3.68,0,0,1-.58.07,4.4,4.4,0,0,1-.81,0,3.06,3.06,0,0,1-.4-.07l-.39-.12a4.21,4.21,0,0,1-.74-.36,3.39,3.39,0,0,0,.7.46,3.17,3.17,0,0,0,.8.28,3.45,3.45,0,0,0,.85.08,3.61,3.61,0,0,0,.86-.1l.2-.06Z"/><path class="cls-2" d="M534.37,200.15s-6.1-3.82-8.88-8.47c0,0-.31,2.23.29,3.13-.26.12-4.48-2.49-4.91-6.15s5.53-1.22,5.53-1.22,3.64,0,3.78.15,2.39,2.06,2.49,2.2,2.57,5.41,2.57,5.41l.54,1.9-.23,2.44Z"/><path class="cls-35" d="M512.85,273.16c.58.56,1.13,1.14,1.68,1.74s1.07,1.2,1.58,1.81,1,1.24,1.53,1.87,1,1.27,1.47,1.91l.11-.1a12.94,12.94,0,0,0-1.36-.86,12.68,12.68,0,0,0-1.43-.71,11.73,11.73,0,0,0-1.5-.55l-.39-.11-.39-.09-.19,0-.2,0-.39-.06.39.08.19,0,.19.06.39.1.38.12.37.13.37.14.37.15.36.17a13.39,13.39,0,0,1,1.41.73,14.51,14.51,0,0,1,1.34.86l.39.28-.29-.39q-.71-1-1.47-1.92c-.5-.63-1-1.25-1.54-1.86s-1.07-1.2-1.63-1.79l-.85-.85C513.45,273.7,513.15,273.43,512.85,273.16Z"/><path class="cls-35" d="M526.36,280.29c.62-.83,1.25-1.66,1.91-2.46s1.32-1.61,2-2.39,1.4-1.54,2.12-2.29c.36-.37.73-.74,1.11-1.09s.76-.71,1.15-1.05c-.75.72-1.47,1.46-2.18,2.22s-1.39,1.54-2.06,2.33-1.34,1.58-2,2.39-1,1.32-1.56,2c.41-.27.83-.52,1.26-.76.6-.33,1.23-.63,1.86-.9a16.56,16.56,0,0,1,1.94-.69l.5-.14.5-.11.25-.06.26,0,.5-.08-.5.11-.25.05-.25.06-.5.13-.49.16-.48.16L531,278l-.48.19-.47.21c-.62.28-1.23.59-1.82.93a19.45,19.45,0,0,0-1.73,1.1l-.5.36Z"/><path class="cls-39" d="M523.33,205a2.55,2.55,0,0,0-2.12-.09,1.86,1.86,0,0,0-1.93-.37,2.1,2.1,0,0,0,1.91,1.89A1.88,1.88,0,0,0,523.33,205Z"/><path class="cls-32" d="M524.36,204.6a6.51,6.51,0,0,1-.71.33,4.91,4.91,0,0,1-.74.24,4.65,4.65,0,0,1-1.53.13,3.79,3.79,0,0,1-1.46-.43,5.6,5.6,0,0,1-1.25-.92,4.89,4.89,0,0,0,.54.58,4.45,4.45,0,0,0,.64.48,3.7,3.7,0,0,0,.73.33,4.1,4.1,0,0,0,.79.16,4.21,4.21,0,0,0,1.58-.18A4.59,4.59,0,0,0,524.36,204.6Z"/><path class="cls-32" d="M521.91,198.88a11.27,11.27,0,0,0-.89,1.17,10.2,10.2,0,0,0-.75,1.28,4.56,4.56,0,0,0-.27.71.82.82,0,0,0,0,.44,1.18,1.18,0,0,0,.27.32,3.22,3.22,0,0,0,.62.42,4.49,4.49,0,0,0,.67.31,7.7,7.7,0,0,1-1.13-.9c-.05,0-.11-.14-.16-.2a.4.4,0,0,1,0-.32,4,4,0,0,1,.26-.65c.21-.44.44-.86.68-1.29S521.69,199.32,521.91,198.88Z"/><path class="cls-19" d="M323.21,263.37h41.31L353.5,369a7.23,7.23,0,0,1-7.2,6.49H302.46a7.23,7.23,0,0,1-7.2-6.49l-11-105.66Z"/><rect class="cls-40" x="279.55" y="260.31" width="88.99" height="9.12" rx="4.18" transform="translate(648.09 529.75) rotate(-180)"/><polygon class="cls-41" points="345.16 269.44 337.48 375.52 309.29 375.52 302.18 269.44 345.16 269.44"/><path class="cls-26" d="M187.82,236.43a8.64,8.64,0,0,0,1.72-4l-.35-1.59c-.45-2,0-3.29.79-3.36h.15l2.4,5.12,1.18-1.07.81,7.26-1.65,3.58Z"/><polygon class="cls-26" points="140.6 369.35 140.6 365.26 145.28 363.96 146.32 364.42 146.5 369.35 145.03 373.64 140.6 369.35"/><rect class="cls-2" x="139.06" y="373.59" width="17.2" height="1.71" rx="0.5" transform="translate(-3.56 1.42) rotate(-0.55)"/><path class="cls-19" d="M139.79,368.48l-.52,4.75c-.06.58.27,1.11.71,1.11l15.15-.15a1.1,1.1,0,0,0,1-.7,2.05,2.05,0,0,0-.44-2.12c-1.35-1.84-5.68-2.28-7.91-3.8a.38.38,0,0,0-.27-.08l-6.91.06C140.19,367.55,139.85,368,139.79,368.48Z"/><path class="cls-2" d="M146.59,370.25h0a.33.33,0,0,1-.09-.39,2.92,2.92,0,0,1,3.1-1.93c.11,0,.19.16.17.3h0c0,.14-.11.24-.22.22a2.51,2.51,0,0,0-2.71,1.68A.18.18,0,0,1,146.59,370.25Z"/><path class="cls-2" d="M148.17,370.85h0a.33.33,0,0,1-.09-.39,2.93,2.93,0,0,1,3.1-1.94.27.27,0,0,1,.17.31h0c0,.15-.11.24-.22.23a2.51,2.51,0,0,0-2.71,1.68A.18.18,0,0,1,148.17,370.85Z"/><path class="cls-2" d="M149.64,371.4h0a.31.31,0,0,1-.09-.38,2.92,2.92,0,0,1,3.1-1.94.27.27,0,0,1,.17.31h0c0,.14-.11.24-.22.22a2.52,2.52,0,0,0-2.71,1.68C149.84,371.41,149.73,371.46,149.64,371.4Z"/><path class="cls-42" d="M143.8,373.67c-1.09-2.83-2.67-3.46-3.76-3.51a.48.48,0,0,0-.48.42l-.29,2.65c-.06.58.27,1.11.71,1.11l3.39,0A.47.47,0,0,0,143.8,373.67Z"/><polygon class="cls-26" points="107.95 369.35 107.95 365.26 112.63 363.96 113.67 364.42 113.85 369.35 112.38 373.64 107.95 369.35"/><rect class="cls-2" x="106.41" y="373.59" width="17.2" height="1.71" rx="0.5" transform="matrix(1, -0.01, 0.01, 1, -3.56, 1.11)"/><path class="cls-19" d="M107.14,368.48l-.52,4.75c-.07.58.27,1.11.71,1.11l15.15-.15a1.1,1.1,0,0,0,1-.7,2.05,2.05,0,0,0-.44-2.12c-1.35-1.84-5.68-2.28-7.91-3.8a.39.39,0,0,0-.27-.08l-6.91.06C107.53,367.55,107.2,368,107.14,368.48Z"/><path class="cls-2" d="M113.94,370.25h0a.33.33,0,0,1-.09-.39,2.92,2.92,0,0,1,3.1-1.93c.11,0,.19.16.17.3h0c0,.14-.11.24-.22.22a2.51,2.51,0,0,0-2.71,1.68A.18.18,0,0,1,113.94,370.25Z"/><path class="cls-2" d="M115.52,370.85h0a.33.33,0,0,1-.09-.39,2.93,2.93,0,0,1,3.1-1.94.27.27,0,0,1,.17.31h0c0,.15-.12.24-.22.23a2.51,2.51,0,0,0-2.71,1.68A.18.18,0,0,1,115.52,370.85Z"/><path class="cls-2" d="M117,371.4h0a.31.31,0,0,1-.09-.38,2.92,2.92,0,0,1,3.1-1.94.27.27,0,0,1,.17.31h0c0,.14-.12.24-.22.22a2.52,2.52,0,0,0-2.71,1.68C117.19,371.41,117.08,371.46,117,371.4Z"/><path class="cls-42" d="M111.15,373.67c-1.09-2.83-2.67-3.46-3.76-3.51a.48.48,0,0,0-.48.42l-.29,2.65c-.07.58.27,1.11.71,1.11l3.39,0A.47.47,0,0,0,111.15,373.67Z"/><path class="cls-40" d="M146.87,215.61l23,23.83,20-7a13.06,13.06,0,0,1,.88,8.61c0,.07-17.25,11.47-21.48,12.32s-25-20.79-25-20.79Z"/><path class="cls-34" d="M123.22,197.58s-2.24-9.42,3-13a13.75,13.75,0,0,1,14.54-1.13c3.78,2.09,6.08,9.46,4.41,13.69l-12.54-3.93Z"/><polygon class="cls-26" points="129.25 205.99 128.82 216.64 138.16 215.78 136.68 206.43 129.25 205.99"/><path class="cls-32" d="M137.38,210.88l-.7-4.45-7.42-.44-.15,3.69C130.64,211.08,133.35,212.48,137.38,210.88Z"/><path class="cls-32" d="M142.59,198.24a1.92,1.92,0,1,0,2.65-1.41A2.15,2.15,0,0,0,142.59,198.24Z"/><path class="cls-26" d="M144,199c0-.31.09-.61.15-.91A10,10,0,1,0,124.29,196a2.14,2.14,0,0,0-1.94-.19,3,3,0,0,0,2.29,5.43,2,2,0,0,0,.46-.28,9.38,9.38,0,0,0,9.16,8.79C139,209.77,143.1,206.52,144,199Z"/><path class="cls-32" d="M136.55,196.14c0,.58.07,1.14.13,1.68a3.79,3.79,0,0,0,.37,1.48l0,.06.05.07a1.06,1.06,0,0,1,.16.21,1,1,0,0,1,.17.52,1.17,1.17,0,0,1-.39.94,1.94,1.94,0,0,1-1.71.41,2.36,2.36,0,0,0,1.38-.72.73.73,0,0,0,.18-.58.62.62,0,0,0-.11-.27,1.06,1.06,0,0,0-.1-.12l-.07-.09-.09-.11a2.3,2.3,0,0,1-.31-.9,4.35,4.35,0,0,1,0-.88A6.16,6.16,0,0,1,136.55,196.14Z"/><path class="cls-2" d="M133.26,197.05a.87.87,0,1,1-.87-.88A.86.86,0,0,1,133.26,197.05Z"/><path class="cls-2" d="M140.77,197.56a.88.88,0,1,1-.87-.87A.87.87,0,0,1,140.77,197.56Z"/><path class="cls-34" d="M134.27,195a7.91,7.91,0,0,0-1.29-.25,4.45,4.45,0,0,0-1.21,0,4,4,0,0,0-1.15.36c-.2.07-.37.2-.57.29s-.37.24-.59.35a3.13,3.13,0,0,1,.37-.6,3,3,0,0,1,.5-.5,2.8,2.8,0,0,1,1.33-.58,3,3,0,0,1,1.45.13A2.57,2.57,0,0,1,134.27,195Z"/><path class="cls-34" d="M138.14,195.29a2.72,2.72,0,0,1,1.25-.64,2.82,2.82,0,0,1,1.44,0,2.69,2.69,0,0,1,1.26.72,2.36,2.36,0,0,1,.45.55,3.64,3.64,0,0,1,.3.63c-.2-.13-.37-.28-.54-.4s-.35-.26-.54-.36a4,4,0,0,0-1.11-.48,4.29,4.29,0,0,0-1.2-.16A8.68,8.68,0,0,0,138.14,195.29Z"/><path class="cls-34" d="M124.44,196.13a1.53,1.53,0,0,0-1-.45l.25-3.05.94-1.85s3.69-5,3.82-5.08,3-1.74,3.13-1.82,4.15.5,4.15.5,7-1.46,5.81,2.19-6.25,5.6-6.51,5.44c.82-.82.9-3.15.9-3.15C132.31,192.79,125.5,195.7,124.44,196.13Z"/><path class="cls-20" d="M138.75,202.77a2.61,2.61,0,0,1-5,.14Z"/><path class="cls-26" d="M126.45,214.12l13.15,0,1.66,7.78-7.21,18.88s-7.22-7.78-7.22-8.89-3.33-9.44-2.78-10.55S126.45,214.12,126.45,214.12Z"/><path class="cls-36" d="M150.38,267.73c-5.57,8.19-16.69,20-16.69,20h0l5.13,79.34s7.43.79,10-1.14C148.8,365.93,150.74,290.71,150.38,267.73Z"/><path class="cls-37" d="M148.28,270.77c0-1.16,2.14,2.27,2.1,1.34-.85-19.27-27.87-3.11-27.87-3.11l-5.67-1.17-10.43,98.92s6.78,1.46,10.67,0l16.61-78.05S139.63,286.21,148.28,270.77Z"/><path class="cls-26" d="M113.82,285.22a.29.29,0,0,0-.49.11c-.47,1.71-2,7.07-2.45,7.05s.69-4.85.27-5.13-1.52,4.45-2.1,4.33.56-4.41.33-4.55-1.76,3.86-2.14,4,.73-4.33.5-4.57-2,2.58-2.28,2.45-.46-.17,1.76-7.67l1-2.92,2.1-1.94,3.1,1.47s3.54,9.44,3.29,9.77S116.15,287.87,113.82,285.22Z"/><path class="cls-43" d="M127.61,215.34s6.57,4,11.77,0c0,0,3,7.82,2.68,8.1s-3.37,8.71-3.37,9-3.65,3.65-5.33,1.12-2.81-2.25-5.05-7.58-3.93-7-3.37-7.58S127.61,215.34,127.61,215.34Z"/><path class="cls-19" d="M126.83,214.08s-13.32,1.11-16.1,5.56-9.44,30-8.88,37.76,5.55,22.77,5.55,22.77,4.44.55,6.11-2.22c0,0-3.33-21.11-2.78-22.77s6.66-18.88,6.66-18.88l-1.11,33.87s13.33,8.33,34.42,1.67c0,0,2.78-55-4.44-56.65l-6.66-1.11-2.78,16.11Z"/><path class="cls-2" d="M165.82,268c4.34-9.7,2.78-18.64,10.7-25.15l.29-.23a22.85,22.85,0,0,1,15.72-5.12c-2.63-4.65-2.83-11.68-2.83-11.68a14.09,14.09,0,0,0,10.87,1.2l-4.87,10.88a22.67,22.67,0,0,1,13.46,8.2c6.17,7.79,13.05,19.23,11.11,29.78s-.53,15-18,21.19c-17.95,6.42-23.78-3.68-33.66-4.35S160.85,279.14,165.82,268Z"/><path class="cls-26" d="M196.1,236.56l-.4,1.36a1.35,1.35,0,0,0,1.64-.64l2.95-6.91a1,1,0,0,0-.14-1c-.74-.86-2.33-2.64-2.79-2.51s1.65,3.16,1.4,3.26-3.14-1.73-3.32-1.36,2.46,2.55,2.37,2.76-2.95-1-3.21-.72,2.54,2,2.52,2.14Z"/><path class="cls-38" d="M195.53,263.37h41.31L225.83,369a7.25,7.25,0,0,1-7.2,6.49H174.78a7.23,7.23,0,0,1-7.2-6.49l-11-105.66Z"/><rect class="cls-33" x="151.87" y="260.31" width="88.99" height="9.12" rx="4.18" transform="translate(392.73 529.75) rotate(180)"/><polygon class="cls-41" points="217.48 269.44 209.8 375.52 181.62 375.52 174.5 269.44 217.48 269.44"/><g class="cls-44"><path class="cls-20" d="M188,314l-5.83,10.07a5.75,5.75,0,0,0-.55,4.83l-5.16-8.69a5.52,5.52,0,0,1-.73-3.82,3.91,3.91,0,0,1,.34-1.08c.65-1.24,3.55-6.18,3.55-6.18l-4.79-2.69,12-.45,5.49,10.49Z"/><path class="cls-20" d="M184.15,322.27h8.49v9.79H187s-6.07-.48-4.59-6.41Z"/><path class="cls-20" d="M202.38,321.77,214,321.5a5.72,5.72,0,0,0,4.4-2l-4.72,8.93a5.58,5.58,0,0,1-2.89,2.61,3.48,3.48,0,0,1-1.09.27c-1.41.09-7.12.19-7.12.19l.19,5.49-6.64-10,6.09-10.15Z"/><path class="cls-20" d="M211.44,320.73,207,313.48l8.36-5.1,2.94,4.83s2.75,5.43-3.09,7.26Z"/><path class="cls-20" d="M201.73,305.23l-5.87-10a5.78,5.78,0,0,0-3.93-2.87l10.11-.2a5.65,5.65,0,0,1,3.68,1.26,3.75,3.75,0,0,1,.77.83c.75,1.18,3.61,6.14,3.61,6.14l4.71-2.84-5.56,10.69-11.82-.41Z"/><path class="cls-20" d="M196.43,297.82l-4.19,7.37-8.52-4.84,2.79-4.91s3.42-5,7.85-.82Z"/></g><path class="cls-45" d="M458.86,263.37h41.3L489.15,369a7.23,7.23,0,0,1-7.2,6.49H438.1a7.25,7.25,0,0,1-7.2-6.49l-11-105.66Z"/><rect class="cls-28" x="415.19" y="260.31" width="88.99" height="9.12" rx="4.18" transform="translate(919.38 529.75) rotate(-180)"/><polygon class="cls-41" points="480.81 269.44 473.12 375.52 444.94 375.52 437.82 269.44 480.81 269.44"/><g class="cls-44"><path class="cls-20" d="M451.3,314l-5.82,10.07a5.74,5.74,0,0,0-.56,4.83l-5.16-8.69a5.63,5.63,0,0,1-.73-3.82,3.91,3.91,0,0,1,.34-1.08c.66-1.24,3.55-6.18,3.55-6.18l-4.79-2.69,12-.45,5.48,10.49Z"/><path class="cls-20" d="M447.48,322.27H456v9.79H450.3s-6.07-.48-4.58-6.41Z"/><path class="cls-20" d="M465.71,321.77l11.63-.27a5.74,5.74,0,0,0,4.41-2L477,328.39a5.6,5.6,0,0,1-2.88,2.61,3.54,3.54,0,0,1-1.1.27c-1.4.09-7.12.19-7.12.19l.2,5.49-6.65-10,6.1-10.15Z"/><path class="cls-20" d="M474.77,320.73l-4.42-7.25,8.36-5.1,3,4.83s2.74,5.43-3.09,7.26Z"/><path class="cls-20" d="M465.06,305.23l-5.88-10a5.75,5.75,0,0,0-3.93-2.87l10.11-.2a5.63,5.63,0,0,1,3.68,1.26,3.52,3.52,0,0,1,.77.83c.76,1.18,3.61,6.14,3.61,6.14l4.71-2.84-5.55,10.69-11.83-.41Z"/><path class="cls-20" d="M459.75,297.82l-4.19,7.37-8.51-4.84,2.79-4.91s3.42-5,7.84-.82Z"/></g><g class="cls-44"><path class="cls-20" d="M314.76,314l-5.83,10.07a5.75,5.75,0,0,0-.55,4.83l-5.17-8.69a5.63,5.63,0,0,1-.73-3.82,3.91,3.91,0,0,1,.34-1.08c.66-1.24,3.56-6.18,3.56-6.18l-4.8-2.69,12-.45,5.48,10.49Z"/><path class="cls-20" d="M310.93,322.27h8.48v9.79h-5.65s-6.07-.48-4.59-6.41Z"/><path class="cls-20" d="M329.16,321.77l11.63-.27a5.74,5.74,0,0,0,4.41-2l-4.73,8.93a5.56,5.56,0,0,1-2.88,2.61,3.54,3.54,0,0,1-1.1.27c-1.4.09-7.12.19-7.12.19l.2,5.49-6.65-10,6.1-10.15Z"/><path class="cls-20" d="M338.22,320.73l-4.42-7.25,8.36-5.1,2.95,4.83s2.75,5.43-3.09,7.26Z"/><path class="cls-20" d="M328.51,305.23l-5.88-10a5.75,5.75,0,0,0-3.92-2.87l10.1-.2a5.63,5.63,0,0,1,3.68,1.26,3.52,3.52,0,0,1,.77.83c.76,1.18,3.62,6.14,3.62,6.14l4.7-2.84L336,308.2l-11.83-.41Z"/><path class="cls-20" d="M323.2,297.82,319,305.19l-8.51-4.84,2.79-4.91s3.42-5,7.84-.82Z"/></g><rect class="cls-46" x="25.32" y="375.3" width="968.35" height="4.81" rx="2.2"/></g></g></svg>